<svg xmlns="http://www.w3.org/2000/svg" viewBox="0 0 252.93 128.29"><defs><style>.cls-1{fill:#b3b3b3;}.cls-2{fill:#4d82b8;}</style></defs><g id="Layer_2" data-name="Layer 2"><g id="Layer_1-2" data-name="Layer 1"><path class="cls-1" d="M191.33,107.32c-25.49,0-42.61-7-42.61-13.53V16.53h85.22V93.79C233.94,100.32,216.82,107.32,191.33,107.32Z"/><path d="M232.44,18V93.79c0,4.91-16,12-41.11,12s-41.11-7.12-41.11-12V18h82.22m3-3H147.22V93.79c0,8.3,19.61,15,44.11,15s44.11-6.73,44.11-15V15Z"/><ellipse class="cls-1" cx="191.33" cy="15.03" rx="42.61" ry="13.53"/><path d="M191.33,3c25.1,0,41.11,7.12,41.11,12s-16,12-41.11,12-41.11-7.12-41.11-12,16-12,41.11-12m0-3C167,0,147.22,6.73,147.22,15s19.75,15,44.11,15,44.11-6.72,44.11-15S215.69,0,191.33,0Z"/><polygon class="cls-2" points="206.32 127.21 178.61 111.21 178.61 64.85 206.32 80.86 206.32 127.21"/><polygon class="cls-1" points="199.68 123.71 198.66 123.12 198.66 76.43 199.68 77.02 199.68 123.71"/><polygon class="cls-1" points="192.98 119.51 191.95 118.92 191.95 72.56 192.98 73.15 192.98 119.51"/><polygon class="cls-1" points="186.27 115.64 185.25 115.05 185.25 68.69 186.27 69.28 186.27 115.64"/><polygon class="cls-1" points="206.32 91.7 178.61 75.7 178.61 74.68 206.32 90.68 206.32 91.7"/><polygon class="cls-1" points="206.32 104.5 178.61 88.49 178.61 87.47 206.32 103.47 206.32 104.5"/><polygon class="cls-1" points="206.32 117.29 178.61 101.29 178.61 100.26 206.32 116.27 206.32 117.29"/><path d="M207,128.29,177.92,111.5V63.78L207,80.57Zm-27.72-17.37,26.35,15.22v-45L179.29,65.93Z"/><polygon class="cls-2" points="237.12 59.85 209.4 75.85 169.25 52.67 196.97 36.67 237.12 59.85"/><polygon class="cls-1" points="230.76 63.85 229.73 64.44 189.3 41.1 190.32 40.51 230.76 63.85"/><polygon class="cls-1" points="223.77 67.56 222.75 68.15 182.6 44.97 183.62 44.38 223.77 67.56"/><polygon class="cls-1" points="217.06 71.43 216.04 72.02 175.9 48.84 176.92 48.25 217.06 71.43"/><polygon class="cls-1" points="206.36 42.1 178.65 58.1 177.76 57.59 205.48 41.58 206.36 42.1"/><polygon class="cls-1" points="217.44 48.49 189.72 64.5 188.84 63.98 216.56 47.98 217.44 48.49"/><polygon class="cls-1" points="228.52 54.89 200.8 70.89 199.92 70.38 227.64 54.38 228.52 54.89"/><path d="M238.39,59.8,209.31,76.59,168,52.73l29.08-16.79Zm-28.9,15.32L235.84,59.9l-39-22.49L170.52,52.62Z"/><polygon class="cls-2" points="212.19 113.02 212.19 81.01 252.34 57.84 252.34 89.84 212.19 113.02"/><polygon class="cls-1" points="211.91 105.51 211.91 104.33 252.34 80.99 252.34 82.17 211.91 105.51"/><polygon class="cls-1" points="212.19 97.61 212.19 96.43 252.34 73.25 252.34 74.43 212.19 97.61"/><polygon class="cls-1" points="212.19 89.87 212.19 88.69 252.34 65.51 252.34 66.69 212.19 89.87"/><polygon class="cls-1" points="242.94 95.27 242.94 63.26 243.83 62.75 243.83 94.75 242.94 95.27"/><polygon class="cls-1" points="231.87 101.66 231.87 69.66 232.75 69.14 232.75 101.15 231.87 101.66"/><polygon class="cls-1" points="220.79 108.06 220.79 76.05 221.67 75.54 221.67 107.55 220.79 108.06"/><path d="M211.6,114.15V80.57l41.33-23.86V90.29Zm1.18-32.69v30.43l39-22.5V59Z"/><path d="M21.77,31.73C9.14,33.73,0,44,0,56.17,0,68.09,8.4,78.08,20.64,80.68a31,31,0,0,0,9.9,0A28.43,28.43,0,0,0,48,68.36c.64-1,1.16-1.77,1.18-1.81s1.13.47,2.46,1.09a14.47,14.47,0,0,0,3,1.14c.47,0,1-.4,2.56-1.78,1.26-1.11,2.06-1.69,2.23-1.61s.86.7,1.65,1.36c1.19,1,1.5,1.2,2.23,1.2s1-.14,2.43-1.53l1.57-1.53L69,66.32c1.42,1.26,1.69,1.42,2.43,1.42s1-.14,2.38-1.46l1.52-1.49,1.55,1.49c1.39,1.3,1.63,1.46,2.35,1.46.87,0,1.37-.31,3.16-2l1-.93,1.53,1.49c1.4,1.36,1.59,1.48,2.39,1.48s1-.12,2.32-1.38L91.05,65l.43.62c1,1.36,1.94,2.16,2.6,2.16,1,0,1.32-.24,2.79-2.14,1.28-1.61,1.4-1.74,2.25-1.82,3.07-.35,5.45-2.83,6.23-6.46a20.88,20.88,0,0,0,0-7,9.68,9.68,0,0,0-7-7.15c-.78-.2-7.11-.26-25.92-.26H47.53l-1.08-1.43a28.26,28.26,0,0,0-9.08-7.41A27.85,27.85,0,0,0,21.77,31.73Zm9.93,4.33a24.43,24.43,0,0,1,6.52,3,25.9,25.9,0,0,1,5.67,5.59,13.08,13.08,0,0,0,1.37,1.75c.14.11,11.9.21,26.14.27,25.74.11,25.9.11,26.83.54,2.23,1,3.28,2.7,3.45,5.49a12.11,12.11,0,0,1-.83,5.61c-.68,1.22-1.32,1.59-3,1.78-1.53.16-1.53.16-2.62,1.36l-1.08,1.2-.35-.5c-1.19-1.71-2.08-2.23-3.11-1.84a11.08,11.08,0,0,0-2,1.55l-1.47,1.34-1.34-1.34c-2.25-2.21-2.89-2.23-5.07-.1l-1.45,1.4-1.48-1.32c-2.4-2.16-2.81-2.16-5.06,0l-1.38,1.36L69.75,61.8c-2.27-2-2.51-2-4.76.06-1.92,1.76-1.55,1.76-3.68-.06-1.07-.91-1.4-1.07-2.1-1.07s-1,.16-2.93,1.92l-2.11,1.94-2.78-1.3A21.79,21.79,0,0,0,48.23,62c-.85,0-1.61.64-2.11,1.8a26.4,26.4,0,0,1-8.21,9.51A27.4,27.4,0,0,1,31,76.62a27.53,27.53,0,0,1-8.84.41C8.79,74.88.64,61.41,5.24,49.15A21.76,21.76,0,0,1,17.07,37,23.56,23.56,0,0,1,31.7,36.06Z"/><path d="M15.54,47a10.62,10.62,0,0,0-6.75,5.35c-2.72,5.78,1.1,12.44,7.68,13.39a9.91,9.91,0,0,0,10.79-6.67,9.67,9.67,0,0,0-1.05-7.8A10.27,10.27,0,0,0,15.54,47Zm4.33,4a7,7,0,0,1,3.31,2.85,4.66,4.66,0,0,1,.45,2.5,4.68,4.68,0,0,1-1.86,4.19,5.67,5.67,0,0,1-4.44,1.44,5.67,5.67,0,0,1-4.23-9.16A6.36,6.36,0,0,1,19.87,50.94Z"/></g></g></svg>